<?xml version="1.0" standalone="no"?>
<!DOCTYPE svg PUBLIC "-//W3C//DTD SVG 20010904//EN"
 "http://www.w3.org/TR/2001/REC-SVG-20010904/DTD/svg10.dtd">
<svg version="1.0" xmlns="http://www.w3.org/2000/svg"
 width="1578.000000pt" height="1739.000000pt" viewBox="0 0 1578.000000 1739.000000"
 preserveAspectRatio="xMidYMid meet">

<g transform="translate(0.000000,1739.000000) scale(0.100000,-0.100000)"
fill="#000000" stroke="none">
<path d="M6502 16713 c-43 -2 -70 -8 -67 -13 4 -6 3 -10 -2 -10 -4 -1 -39 -5
-78 -10 -38 -5 -122 -12 -185 -16 -63 -3 -158 -14 -210 -24 -52 -10 -124 -22
-160 -25 -36 -3 -99 -15 -140 -25 -41 -10 -108 -23 -149 -29 -40 -7 -81 -16
-91 -21 -10 -5 -57 -16 -104 -25 -47 -8 -99 -21 -114 -29 -15 -8 -50 -17 -77
-21 -28 -4 -69 -16 -93 -26 -24 -10 -60 -21 -80 -25 -34 -7 -107 -31 -307
-105 -44 -17 -98 -36 -121 -43 -22 -8 -58 -23 -79 -35 -22 -12 -46 -21 -53
-21 -7 0 -30 -9 -50 -19 -20 -11 -64 -32 -97 -46 -150 -66 -479 -242 -622
-333 -220 -139 -266 -171 -449 -308 -225 -169 -417 -337 -639 -559 -308 -307
-318 -320 -375 -462 -31 -76 -31 -79 -31 -249 1 -95 4 -180 7 -188 4 -9 8 -51
9 -94 1 -42 8 -144 14 -227 6 -82 13 -226 17 -320 5 -157 9 -229 33 -585 5
-69 12 -199 15 -290 6 -145 13 -295 22 -440 1 -25 7 -110 13 -190 6 -80 13
-239 16 -355 4 -115 10 -224 14 -241 5 -18 6 -52 4 -78 -3 -25 0 -80 6 -123
13 -83 16 -156 26 -483 3 -113 8 -225 12 -250 3 -25 7 -76 8 -115 0 -38 6
-140 13 -225 7 -85 14 -245 17 -355 3 -110 8 -225 12 -255 3 -30 7 -89 9 -130
1 -41 7 -147 13 -235 6 -88 13 -243 16 -345 6 -172 13 -302 35 -640 5 -74 12
-220 14 -325 3 -104 9 -224 13 -265 4 -41 8 -104 8 -140 1 -36 7 -128 14 -205
6 -77 13 -230 16 -340 3 -110 8 -229 12 -265 4 -36 8 -96 9 -135 1 -38 7 -135
13 -215 6 -80 14 -235 16 -345 3 -110 8 -225 12 -255 4 -30 7 -86 8 -125 2
-82 21 -247 34 -291 21 -73 50 -97 131 -107 25 -4 62 -11 84 -17 23 -7 62 -9
96 -5 63 7 211 -11 250 -30 39 -20 76 -65 100 -122 20 -48 21 -63 16 -205 -7
-218 -8 -805 -1 -829 15 -45 -39 -154 -89 -181 -23 -12 -139 -32 -306 -53
-108 -14 -185 -26 -290 -45 -25 -4 -74 -11 -110 -14 -108 -11 -189 -24 -201
-32 -7 -4 -64 -13 -128 -20 -64 -7 -150 -20 -191 -28 -41 -9 -130 -22 -197
-30 -120 -13 -153 -24 -153 -52 0 -30 -1 -30 630 6 243 13 701 30 845 31 66 0
134 4 150 9 17 5 257 14 535 20 278 7 667 16 865 21 198 5 554 14 790 20 547
13 2651 13 3190 0 226 -6 590 -15 810 -20 899 -21 1252 -33 1281 -42 17 -5 69
-9 115 -9 141 2 553 -19 1004 -49 72 -5 202 -12 290 -16 88 -4 203 -11 255
-16 152 -13 339 -28 570 -45 118 -8 260 -19 315 -24 126 -11 663 -30 857 -30
143 0 352 20 434 41 32 9 55 7 103 -5 107 -27 113 -26 179 57 32 40 64 88 71
106 13 29 12 34 -10 58 -21 22 -65 55 -118 88 -9 5 -45 28 -81 51 -68 42 -227
121 -345 171 -68 29 -122 49 -215 80 -25 8 -63 23 -86 34 -23 10 -50 19 -61
19 -11 0 -41 11 -67 25 -26 14 -54 25 -63 25 -8 0 -41 11 -72 24 -53 23 -80
33 -196 71 -27 9 -63 23 -80 31 -16 7 -55 23 -85 33 -30 11 -86 31 -125 46
-38 15 -92 35 -120 45 -27 10 -63 25 -80 34 -16 9 -38 16 -48 16 -10 0 -36 9
-59 21 -22 11 -59 27 -82 34 -22 7 -77 27 -121 45 -284 111 -329 128 -394 151
-30 11 -64 25 -76 33 -11 7 -36 17 -55 21 -19 4 -48 15 -65 25 -16 10 -47 21
-67 25 -46 9 -114 65 -106 87 4 9 29 21 60 28 29 6 67 18 84 26 61 27 227 47
419 51 105 2 194 8 199 13 18 18 -15 37 -72 44 -31 4 -88 13 -127 22 -118 25
-268 36 -564 43 -249 5 -285 8 -294 23 -8 11 -7 49 1 125 11 94 22 344 26 598
1 44 6 87 11 95 5 8 11 56 12 105 4 208 23 599 34 710 6 66 11 142 10 170 -1
27 3 79 8 115 6 36 14 166 17 290 9 347 10 362 19 415 4 28 9 84 11 125 9 278
25 606 34 725 11 149 12 173 30 620 7 160 14 326 15 370 6 126 14 261 26 380
5 61 12 211 15 335 6 302 10 385 19 451 4 31 8 92 10 135 14 317 27 639 30
694 1 36 6 99 10 140 5 41 10 104 11 140 13 322 25 555 39 715 9 105 21 280
26 390 12 250 14 287 24 355 5 30 10 75 11 100 2 25 8 135 15 245 21 354 14
575 -22 670 -10 28 -23 71 -29 98 -6 26 -19 64 -30 85 -11 20 -20 40 -20 45 0
27 -130 221 -205 306 -112 128 -144 155 -615 514 -25 19 -76 56 -115 83 -38
26 -88 60 -110 76 -58 41 -129 88 -215 142 -41 26 -90 57 -109 69 -174 110
-492 287 -516 287 -7 0 -26 10 -42 23 -15 12 -48 32 -73 43 -25 12 -97 46
-160 77 -63 30 -126 58 -139 62 -14 4 -38 16 -55 26 -17 11 -38 19 -47 19 -9
0 -37 11 -63 25 -26 14 -53 25 -60 25 -7 0 -34 11 -60 25 -26 14 -56 25 -67
25 -11 0 -42 11 -69 25 -27 14 -57 25 -66 25 -9 0 -42 11 -73 24 -102 44 -492
160 -594 177 -27 4 -74 17 -105 27 -32 11 -88 23 -125 27 -38 3 -87 13 -110
21 -23 8 -80 19 -127 25 -47 5 -128 18 -180 28 -52 11 -153 22 -225 26 -129 6
-197 18 -224 39 -14 11 -902 18 -1069 9z m993 -618 c44 -2 107 -7 140 -9 33
-3 121 -11 195 -17 74 -6 145 -15 158 -20 13 -5 78 -15 145 -23 67 -8 134 -19
149 -25 14 -5 64 -15 110 -21 45 -6 112 -19 148 -30 36 -10 85 -21 110 -24 25
-4 74 -15 110 -26 69 -20 140 -40 255 -71 39 -10 77 -23 86 -28 9 -5 36 -15
60 -21 24 -7 58 -18 74 -25 35 -16 122 -50 180 -71 22 -8 60 -24 85 -36 25
-11 68 -31 95 -44 239 -111 403 -196 635 -331 25 -14 65 -36 90 -50 25 -13 65
-37 90 -53 25 -16 61 -39 80 -50 19 -11 55 -34 80 -50 25 -16 59 -36 75 -45
36 -18 133 -87 240 -170 43 -33 91 -70 107 -81 29 -22 126 -106 233 -203 127
-116 348 -338 376 -378 18 -26 39 -80 55 -144 25 -95 26 -114 21 -234 -3 -71
-10 -152 -16 -180 -5 -27 -17 -273 -26 -545 -9 -272 -20 -522 -25 -555 -5 -33
-17 -287 -25 -565 -9 -278 -20 -527 -25 -555 -5 -27 -17 -297 -25 -600 -9
-302 -20 -568 -25 -590 -5 -22 -11 -123 -14 -225 -17 -542 -28 -800 -36 -845
-5 -27 -17 -243 -25 -480 -9 -236 -20 -450 -25 -475 -9 -46 -24 -383 -36 -809
-3 -129 -10 -247 -14 -263 -9 -29 -23 -359 -41 -938 -15 -507 -21 -590 -47
-632 -42 -67 155 -62 -2417 -71 -5161 -18 -5549 -18 -5587 -7 -73 21 -82 74
-103 635 -9 226 -20 430 -25 455 -6 25 -17 223 -25 440 -8 217 -19 418 -25
445 -8 45 -19 243 -35 670 -3 77 -10 167 -15 200 -6 33 -17 238 -25 455 -8
217 -20 420 -25 450 -5 30 -17 231 -25 445 -8 215 -20 415 -25 445 -5 30 -17
233 -25 450 -9 217 -20 418 -25 445 -6 28 -17 221 -25 430 -9 209 -20 407 -25
440 -5 33 -14 182 -20 330 -11 253 -19 394 -39 710 -5 72 -12 211 -16 310 -4
99 -11 230 -16 290 -29 396 -40 584 -36 685 3 110 5 118 40 184 47 87 89 139
197 242 141 135 373 316 535 416 65 40 113 70 150 94 38 24 98 58 150 84 22
11 63 33 90 49 72 42 193 101 205 101 6 0 28 11 48 25 20 14 43 25 50 25 8 0
31 9 51 19 20 11 68 33 106 49 39 16 98 42 131 56 34 14 68 26 75 26 8 0 37
12 64 25 28 14 56 25 64 25 8 0 32 9 55 19 39 18 91 36 231 80 59 19 101 33
220 73 33 11 81 24 107 28 26 5 57 14 69 20 12 7 60 21 108 31 47 10 111 25
141 34 30 8 66 15 80 15 14 0 53 9 86 20 34 10 90 22 125 25 35 4 98 15 139
26 41 10 127 23 190 29 63 6 129 15 145 20 40 13 231 28 450 36 99 4 191 11
205 15 23 7 287 4 475 -6z m2138 -11108 c64 -38 94 -86 106 -172 15 -100 14
-568 -1 -617 -16 -54 -65 -95 -125 -103 -26 -4 -61 -10 -78 -15 -16 -4 -219
-11 -450 -14 -656 -9 -1245 -25 -1300 -36 -27 -5 -248 -16 -490 -25 -242 -9
-453 -21 -470 -26 -16 -4 -172 -15 -345 -24 -173 -8 -331 -20 -350 -25 -19 -5
-154 -17 -300 -25 -146 -9 -278 -20 -295 -25 -16 -5 -145 -16 -285 -25 -140
-10 -263 -21 -272 -26 -9 -5 -52 -9 -95 -9 -67 0 -84 4 -116 25 -20 14 -49 45
-64 68 l-27 42 3 283 c1 155 7 297 12 314 5 18 9 69 9 114 0 182 52 295 160
346 8 4 1075 6 2370 5 l2355 -2 48 -28z m1782 -38 c4 -6 -11 -37 -34 -69 -39
-56 -41 -61 -41 -134 l0 -75 50 -60 c86 -104 227 -189 440 -266 41 -15 100
-38 131 -51 31 -13 64 -24 73 -24 9 0 36 -10 59 -21 23 -12 65 -28 92 -35 28
-7 86 -26 130 -42 141 -53 205 -74 305 -102 36 -10 83 -25 105 -33 44 -17 109
-39 200 -67 33 -11 98 -33 145 -50 47 -18 109 -38 138 -47 58 -16 143 -62 149
-80 3 -7 -7 -19 -22 -29 -22 -14 -34 -15 -83 -6 -152 28 -208 34 -482 53 -162
11 -342 24 -400 29 -58 4 -193 13 -300 20 -107 6 -211 15 -230 20 -19 5 -100
14 -180 20 -80 5 -188 19 -240 31 -52 11 -104 22 -116 24 -24 5 -87 53 -114
88 -35 44 -52 195 -52 464 0 231 6 302 34 375 10 26 60 53 133 71 37 9 104 7
110 -4z"/>
<path d="M8010 10540 c0 -107 19 -146 21 -45 3 88 1 107 -11 119 -7 7 -10 -20
-10 -74z"/>
<path d="M7268 10560 c2 -16 9 -30 14 -30 13 0 6 53 -8 57 -7 2 -9 -8 -6 -27z"/>
<path d="M3167 10514 c-4 -4 -7 -44 -7 -89 0 -59 5 -92 19 -120 13 -27 19 -64
20 -123 2 -59 8 -96 20 -121 10 -20 21 -64 24 -98 4 -34 16 -79 27 -100 11
-21 20 -51 20 -68 0 -17 9 -48 19 -69 11 -21 23 -51 26 -68 7 -29 34 -97 74
-183 39 -84 48 -101 59 -120 7 -11 16 -31 22 -45 5 -14 28 -54 50 -89 22 -34
40 -64 40 -66 0 -10 84 -125 150 -205 118 -143 255 -269 375 -345 33 -21 71
-45 85 -54 23 -15 101 -54 205 -102 54 -25 210 -72 325 -100 78 -18 354 -43
450 -41 250 7 447 31 645 79 33 8 83 19 110 25 28 6 82 21 122 34 39 13 79 24
88 24 8 0 32 8 53 19 20 10 63 24 94 31 32 6 60 15 63 21 3 5 32 16 63 25 31
9 71 25 88 35 17 11 38 19 47 19 14 0 87 31 201 86 28 13 55 24 60 24 6 0 22
9 36 20 14 11 32 20 40 20 18 0 132 59 141 72 4 6 4 49 2 96 -2 48 -8 184 -14
302 -11 264 -17 320 -34 320 -6 0 -42 -22 -79 -50 -36 -27 -75 -54 -85 -60
-11 -5 -26 -16 -33 -22 -8 -7 -29 -22 -48 -32 -19 -11 -55 -30 -80 -44 -76
-42 -200 -102 -211 -102 -6 0 -28 -9 -48 -19 -42 -22 -112 -47 -196 -68 -33
-9 -87 -24 -120 -34 -33 -10 -98 -23 -145 -29 -47 -6 -107 -15 -135 -20 -82
-15 -455 -12 -538 4 -40 8 -111 17 -158 20 -48 2 -104 12 -125 21 -22 9 -58
20 -82 26 -62 14 -238 100 -327 160 -97 66 -267 235 -322 319 -24 36 -48 71
-54 78 -28 33 -129 236 -144 292 -4 14 -16 37 -26 52 -11 14 -19 43 -19 64 0
21 -13 64 -29 98 -23 46 -30 77 -32 126 -4 118 -32 150 -43 49 -3 -34 -11 -68
-17 -75 -17 -21 -56 -17 -74 9 -10 13 -15 16 -13 6 2 -8 -8 -29 -22 -45 -30
-36 -52 -51 -44 -31 4 12 -13 24 -48 31 -3 0 -10 4 -14 9 -4 4 -92 7 -196 7
l-188 0 -1 -22 c0 -13 -3 -17 -6 -10 -2 6 -9 10 -14 6 -5 -3 -9 -2 -8 3 4 17
-14 43 -31 43 -14 0 -19 12 -24 63 -4 34 -7 73 -7 85 1 28 -12 55 -22 46z"/>
<path d="M7324 10459 c-6 -8 -14 -46 -18 -85 -5 -60 -3 -76 15 -110 14 -25 23
-65 26 -114 3 -48 12 -86 24 -106 10 -17 21 -57 25 -90 3 -32 12 -69 20 -81 7
-11 19 -43 25 -70 6 -26 20 -62 30 -79 11 -17 19 -39 19 -49 0 -19 21 -66 108
-240 65 -132 168 -291 232 -360 26 -27 51 -57 56 -66 9 -16 149 -139 158 -139
3 0 29 -18 58 -40 29 -21 89 -57 133 -79 176 -86 252 -121 290 -135 22 -8 72
-26 110 -41 152 -59 254 -92 316 -104 35 -7 71 -17 81 -22 9 -5 85 -23 170
-41 l153 -33 325 0 c304 0 332 2 440 24 63 13 135 30 160 38 25 8 77 22 115
32 39 10 79 23 90 29 11 7 38 18 60 26 100 35 282 124 309 151 14 15 16 58 16
373 0 201 -4 363 -10 372 -8 12 -14 12 -45 -3 -20 -9 -43 -17 -53 -17 -10 0
-33 -8 -52 -18 -19 -11 -64 -24 -99 -31 -35 -7 -74 -19 -85 -26 -12 -7 -48
-17 -81 -21 -33 -3 -81 -15 -107 -25 -26 -10 -85 -23 -130 -28 -46 -5 -128
-17 -183 -26 -134 -22 -594 -17 -665 7 -25 9 -71 19 -103 22 -32 4 -75 13 -95
22 -20 9 -57 22 -82 29 -56 16 -149 55 -181 76 -13 9 -35 20 -49 24 -43 14
-185 111 -266 182 -127 112 -225 234 -356 446 -16 25 -28 50 -28 57 0 7 -11
28 -25 46 -14 18 -25 40 -25 50 0 9 -11 36 -24 58 -13 23 -26 63 -29 89 -6 48
-21 77 -38 77 -5 0 -9 -8 -9 -18 0 -10 -6 -30 -12 -45 -15 -29 -39 -28 -93 5
-38 23 -46 23 -73 -2 -19 -18 -69 -43 -82 -41 -3 1 -5 7 -5 14 -1 6 -6 11 -13
10 -7 -2 -12 6 -12 18 0 16 -4 19 -17 14 -21 -8 -26 -8 -235 -6 l-158 1 -1 33
c-1 17 -4 43 -8 56 -5 19 -8 21 -17 10z m676 -149 c0 -13 -11 -13 -30 0 -12 8
-11 10 8 10 12 0 22 -4 22 -10z"/>
<path d="M3682 10340 c0 -14 2 -19 5 -12 2 6 2 18 0 25 -3 6 -5 1 -5 -13z"/>
<path d="M10930 8062 c-8 -4 -46 -28 -85 -53 -74 -49 -190 -117 -265 -156 -25
-13 -63 -34 -85 -47 -77 -44 -140 -79 -170 -93 -16 -8 -37 -18 -45 -23 -35
-21 -156 -80 -163 -80 -5 0 -59 -24 -120 -54 -62 -29 -141 -66 -177 -80 -36
-15 -83 -35 -105 -45 -69 -32 -148 -62 -198 -76 -27 -8 -58 -20 -70 -28 -12
-8 -38 -17 -57 -21 -19 -4 -55 -15 -80 -26 -25 -10 -85 -30 -135 -45 -49 -15
-124 -37 -165 -50 -41 -13 -101 -28 -133 -34 -31 -6 -66 -15 -76 -20 -10 -6
-56 -17 -102 -26 -46 -8 -104 -21 -129 -29 -25 -7 -74 -17 -110 -20 -36 -4
-89 -14 -118 -22 -29 -8 -126 -24 -215 -35 -89 -11 -193 -24 -232 -29 -38 -5
-195 -14 -347 -20 -287 -11 -756 -1 -911 21 -40 5 -142 18 -227 28 -85 11
-189 26 -230 35 -41 8 -109 20 -150 25 -41 6 -95 17 -119 26 -24 8 -56 15 -71
15 -15 0 -62 9 -106 21 -43 12 -101 25 -129 31 -27 5 -77 18 -110 28 -33 11
-87 26 -120 34 -58 14 -113 30 -205 62 -25 9 -70 21 -100 28 -30 7 -68 20 -85
28 -16 9 -46 19 -65 23 -19 4 -53 16 -75 26 -22 10 -62 25 -90 34 -97 32 -181
63 -255 95 -41 17 -94 37 -118 45 -24 7 -49 18 -56 24 -7 6 -33 17 -57 25 -43
14 -95 34 -210 82 -31 13 -64 24 -73 24 -10 0 -37 9 -60 20 -24 11 -63 22 -87
26 -24 4 -66 16 -94 26 -53 21 -231 36 -279 24 -42 -10 -59 -60 -41 -119 44
-145 338 -469 624 -687 18 -14 56 -43 84 -66 29 -22 68 -52 88 -65 20 -13 63
-42 95 -63 137 -92 252 -165 289 -185 22 -12 60 -34 85 -48 41 -24 143 -78
245 -132 22 -11 90 -44 150 -71 61 -28 133 -62 161 -76 28 -13 56 -24 63 -24
7 0 33 -11 59 -25 26 -14 55 -25 65 -25 10 0 35 -9 55 -19 21 -11 62 -26 92
-35 77 -22 177 -55 232 -77 26 -10 57 -19 70 -19 13 0 55 -12 93 -25 39 -14
82 -25 97 -25 16 0 54 -9 85 -20 32 -11 101 -26 153 -34 52 -8 107 -19 123
-25 15 -6 64 -13 110 -17 45 -3 120 -13 167 -21 143 -25 203 -28 560 -28 306
0 362 3 500 23 232 34 274 42 455 88 33 8 87 22 120 30 33 8 83 23 110 33 28
11 68 24 90 29 59 16 176 58 210 76 17 9 36 16 43 16 18 0 127 46 293 124 31
14 61 26 66 26 6 0 21 8 34 19 13 10 41 23 61 30 20 7 41 18 48 26 6 7 23 16
38 20 15 3 38 14 52 23 13 9 61 37 106 62 131 71 237 132 264 150 14 9 43 28
65 42 58 36 293 195 340 229 22 16 54 40 72 52 71 50 271 205 319 247 29 25
80 68 115 96 35 28 116 101 180 162 l116 111 8 123 c5 68 9 175 9 238 1 108 0
115 -19 117 -11 1 -27 -1 -35 -5z"/>
<path d="M6485 2726 c-39 -18 -70 -52 -91 -101 -15 -33 -18 -81 -22 -287 l-4
-247 -52 39 c-110 84 -232 117 -390 107 -245 -15 -430 -165 -505 -410 -30 -97
-43 -258 -31 -374 13 -128 33 -201 82 -303 32 -67 57 -101 117 -160 45 -44 99
-87 131 -102 199 -98 443 -68 604 74 24 21 46 38 48 38 3 0 10 -17 16 -39 33
-110 151 -161 258 -112 47 21 77 58 93 116 9 29 11 254 9 845 -3 899 2 839
-74 897 -29 21 -49 28 -98 30 -37 2 -73 -2 -91 -11z m-336 -811 c151 -53 233
-244 202 -470 -18 -129 -74 -220 -165 -268 -62 -32 -175 -31 -241 4 -98 50
-154 161 -162 319 -8 160 27 280 105 358 66 66 171 89 261 57z"/>
<path d="M3255 2711 c-93 -43 -136 -144 -104 -242 34 -101 164 -157 267 -114
79 33 115 91 115 180 0 35 -6 72 -15 90 -49 92 -167 130 -263 86z"/>
<path d="M1130 2690 c-63 -21 -104 -62 -119 -117 -15 -53 -15 -1553 0 -1606
14 -50 71 -113 116 -128 52 -17 135 -7 178 22 20 14 46 45 60 73 l25 50 0 515
c0 296 4 511 9 505 5 -5 64 -227 131 -494 67 -267 131 -505 141 -530 40 -92
122 -149 214 -150 81 0 125 17 175 69 56 57 62 75 205 646 58 231 108 431 112
445 5 14 10 -209 13 -495 5 -513 5 -521 27 -562 40 -74 107 -109 194 -101 66
7 121 45 150 105 l24 48 0 785 0 786 -25 48 c-19 37 -37 55 -75 75 -48 25 -56
26 -215 26 -91 0 -177 -3 -192 -8 -46 -12 -96 -64 -116 -120 -11 -29 -75 -260
-142 -515 -68 -254 -127 -459 -130 -455 -4 4 -58 199 -119 433 -163 621 -165
626 -264 655 -77 23 -305 20 -377 -5z"/>
<path d="M9167 2696 c-21 -8 -48 -22 -59 -33 -29 -25 -58 -91 -58 -133 0 -42
29 -108 58 -133 44 -39 88 -46 310 -47 l212 0 0 -661 c0 -443 4 -674 11 -703
44 -174 280 -213 374 -61 l30 48 3 688 3 688 227 3 c217 3 229 4 268 27 55 31
84 84 84 151 0 67 -29 120 -84 151 l-41 24 -650 2 c-531 2 -657 0 -688 -11z"/>
<path d="M11122 2350 c-320 -45 -587 -286 -667 -605 -25 -96 -25 -276 -1 -370
75 -292 300 -517 591 -590 95 -24 275 -24 370 0 240 61 437 224 539 447 52
112 69 196 69 328 0 132 -17 216 -69 328 -125 274 -383 449 -684 466 -47 2
-114 1 -148 -4z m185 -201 c299 -41 515 -288 516 -589 0 -267 -176 -499 -432
-572 -85 -24 -225 -26 -308 -5 -209 55 -376 221 -430 430 -21 80 -20 215 1
296 40 154 156 302 292 373 93 48 150 64 271 77 6 0 47 -4 90 -10z"/>
<path d="M11434 1850 c-55 -23 -71 -99 -30 -147 53 -61 156 -21 156 62 0 63
-69 110 -126 85z"/>
<path d="M10906 1814 c-57 -58 -17 -154 64 -154 27 0 45 7 64 26 57 58 17 154
-64 154 -27 0 -45 -7 -64 -26z"/>
<path d="M10806 1441 c-15 -16 -15 -23 -3 -59 87 -252 404 -375 652 -253 104
51 199 167 220 267 7 38 -14 64 -51 64 -20 0 -28 -8 -40 -37 -42 -108 -97
-171 -184 -212 -48 -23 -68 -26 -155 -26 -89 0 -107 3 -162 29 -73 33 -139 99
-178 177 -38 74 -65 88 -99 50z"/>
<path d="M3254 2221 c-51 -23 -89 -72 -104 -131 -8 -31 -10 -208 -8 -580 3
-525 3 -536 24 -575 27 -49 49 -70 97 -90 81 -34 183 -6 231 63 44 64 47 115
44 664 l-3 513 -24 48 c-46 93 -162 133 -257 88z"/>
<path d="M3970 2218 c-32 -16 -52 -36 -70 -68 l-25 -45 0 -565 c0 -565 0 -565
22 -607 40 -74 107 -109 194 -101 66 7 121 45 150 105 24 47 24 54 29 413 5
354 6 366 28 411 27 55 81 111 131 136 52 25 165 25 209 -2 77 -47 92 -133 92
-565 0 -195 4 -340 11 -363 13 -47 63 -106 106 -123 72 -30 164 -12 215 42 56
60 58 80 58 513 0 224 -5 424 -11 461 -36 229 -220 380 -463 380 -134 0 -245
-39 -347 -123 l-57 -45 -5 26 c-9 43 -49 95 -92 119 -52 30 -117 30 -175 1z"/>
<path d="M7433 2229 c-178 -30 -331 -147 -379 -291 -24 -74 -16 -197 18 -263
64 -125 185 -194 487 -275 152 -41 235 -74 260 -103 6 -9 15 -31 18 -51 7 -46
-14 -78 -70 -108 -36 -20 -57 -23 -137 -22 -142 1 -201 35 -286 165 -50 75
-87 99 -156 99 -99 -1 -174 -85 -165 -186 15 -151 159 -285 367 -341 102 -28
369 -25 473 5 215 61 327 176 357 365 19 122 -11 216 -95 299 -82 82 -176 122
-435 189 -229 59 -280 86 -280 145 0 78 128 124 258 92 39 -9 61 -25 132 -99
97 -100 116 -111 179 -112 107 -1 171 51 179 147 13 159 -164 306 -415 345
-82 13 -234 13 -310 0z"/>
<path d="M12325 2224 c-51 -26 -85 -66 -100 -118 -12 -40 -15 -124 -15 -440 1
-436 8 -506 60 -612 124 -252 514 -303 759 -100 l55 45 20 -51 c39 -96 140
-141 239 -109 45 15 93 68 106 118 15 52 15 1094 0 1146 -14 50 -71 113 -116
128 -52 17 -135 7 -178 -22 -20 -14 -46 -45 -60 -73 -25 -50 -25 -52 -25 -330
-1 -444 -13 -514 -101 -589 -127 -109 -295 -79 -340 60 -8 26 -14 163 -18 423
-7 408 -9 428 -59 484 -45 51 -166 72 -227 40z"/>
<path d="M13900 2218 c-33 -18 -51 -37 -70 -73 l-25 -49 0 -566 c0 -547 1
-566 20 -599 64 -109 206 -135 295 -55 64 58 68 82 74 414 9 431 35 540 143
586 45 19 75 18 184 -11 101 -26 130 -24 183 10 74 48 93 162 41 236 -57 81
-200 135 -330 127 -84 -6 -133 -29 -194 -92 l-45 -46 -25 47 c-37 66 -69 86
-144 91 -51 3 -70 -1 -107 -20z"/>
</g>
</svg>
